<?xml version="1.0" encoding="UTF-8" standalone="no"?><!DOCTYPE svg PUBLIC "-//W3C//DTD SVG 1.1//EN" "http://www.w3.org/Graphics/SVG/1.1/DTD/svg11.dtd"><svg width="380px" height="74px" viewBox="0 0 380px 74px" version="1.1" xmlns="http://www.w3.org/2000/svg" xmlns:xlink="http://www.w3.org/1999/xlink" xml:space="preserve" style="fill-rule:evenodd;clip-rule:evenodd;stroke-linejoin:round;stroke-miterlimit:1.41421;"><path d="M99.232,29.676c-1.73,0 -3.381,0.334 -4.907,0.993c-1.527,0.661 -2.876,1.571 -4.009,2.704c-1.134,1.134 -2.044,2.493 -2.703,4.04c-0.659,1.545 -0.993,3.206 -0.993,4.939c0,1.732 0.334,3.383 0.993,4.906c0.659,1.527 1.569,2.876 2.703,4.009c1.134,1.134 2.482,2.044 4.009,2.704c1.523,0.659 3.174,0.993 4.907,0.993c1.732,0 3.382,-0.334 4.906,-0.993c1.526,-0.66 2.875,-1.57 4.009,-2.704c1.134,-1.133 2.043,-2.482 2.704,-4.009c0.659,-1.525 0.993,-3.176 0.993,-4.906c0,-1.73 -0.334,-3.392 -0.994,-4.939c-0.66,-1.547 -1.569,-2.906 -2.703,-4.04c-1.134,-1.133 -2.483,-2.043 -4.009,-2.704c-1.526,-0.659 -3.177,-0.993 -4.906,-0.993m0,30.225c-2.347,0 -4.618,-0.455 -6.751,-1.35c-2.133,-0.896 -4.036,-2.172 -5.656,-3.793c-1.665,-1.665 -2.951,-3.59 -3.824,-5.721c-0.875,-2.132 -1.318,-4.381 -1.318,-6.685c0,-2.345 0.443,-4.616 1.318,-6.749c0.873,-2.132 2.16,-4.057 3.824,-5.721c1.622,-1.621 3.525,-2.897 5.657,-3.792c2.133,-0.896 4.404,-1.351 6.75,-1.351c2.345,0 4.616,0.455 6.75,1.351c2.131,0.895 4.034,2.171 5.656,3.792c1.663,1.662 2.953,3.587 3.829,5.721c0.874,2.136 1.322,4.406 1.322,6.749l0,17.188c0,0.207 -0.168,0.374 -0.375,0.374l-4.263,0c-0.207,0 -0.374,-0.167 -0.374,-0.374l0,-4.322c0,-0.344 -0.426,-0.505 -0.654,-0.248c-0.54,0.61 -1.093,1.15 -1.697,1.615c-1.025,0.791 -2.102,1.441 -3.236,1.933c-1.132,0.49 -2.304,0.847 -3.501,1.062c-1.194,0.213 -2.352,0.321 -3.457,0.321" style="fill:#484dbd;fill-rule:nonzero;"/><path d="M140.038,29.676c-1.73,0 -3.381,0.334 -4.907,0.993c-1.527,0.661 -2.876,1.571 -4.009,2.704c-1.134,1.134 -2.044,2.493 -2.703,4.04c-0.659,1.545 -0.993,3.206 -0.993,4.939c0,1.732 0.334,3.383 0.993,4.906c0.659,1.527 1.569,2.876 2.703,4.009c1.134,1.134 2.482,2.044 4.009,2.704c1.523,0.659 3.174,0.993 4.907,0.993c1.732,0 3.382,-0.334 4.906,-0.993c1.526,-0.66 2.875,-1.57 4.009,-2.704c1.134,-1.133 2.043,-2.482 2.704,-4.009c0.659,-1.525 0.993,-3.176 0.993,-4.906c0,-1.73 -0.334,-3.392 -0.994,-4.939c-0.66,-1.547 -1.569,-2.906 -2.703,-4.04c-1.134,-1.133 -2.483,-2.043 -4.009,-2.704c-1.526,-0.659 -3.177,-0.993 -4.906,-0.993m0,43.595c-2.344,0 -4.604,-0.444 -6.717,-1.319c-4.303,-2.032 -7.013,-5.316 -7.789,-6.341c-0.13,-0.172 -0.09,-0.416 0.086,-0.539l3.403,-2.388c0.17,-0.119 0.402,-0.081 0.525,0.086c0.535,0.732 2.064,2.635 4.404,4.043c1.796,1.038 3.86,1.521 6.088,1.521c1.73,0 3.38,-0.334 4.906,-0.993c1.526,-0.661 2.875,-1.57 4.009,-2.704c1.134,-1.134 2.031,-2.483 2.691,-4.009c0.659,-1.526 0.98,-3.177 0.98,-4.907l0,-0.336c0,-0.333 -0.395,-0.502 -0.639,-0.276c-1.596,1.479 -3.369,2.612 -5.144,3.377c-2.177,0.939 -4.464,1.415 -6.809,1.415c-2.347,0 -4.615,-0.455 -6.748,-1.35c-2.134,-0.896 -4.035,-2.172 -5.654,-3.793c-1.665,-1.665 -2.951,-3.59 -3.824,-5.721c-0.874,-2.132 -1.317,-4.381 -1.317,-6.685c0,-2.345 0.443,-4.616 1.318,-6.749c0.873,-2.132 2.16,-4.057 3.824,-5.721c1.622,-1.621 3.525,-2.897 5.657,-3.792c2.133,-0.896 4.404,-1.351 6.75,-1.351c1.152,0 2.363,0.13 3.599,0.386c1.232,0.255 2.441,0.622 3.592,1.09c1.155,0.471 2.25,1.089 3.255,1.837c0.637,0.475 1.223,0.978 1.753,1.527c0.217,0.224 0.595,0.113 0.649,-0.194l0.51,-4.244c0.032,-0.181 0.19,-0.314 0.374,-0.314l3.486,0c0.21,0 0.38,0.171 0.38,0.381l0,30.513c0,2.343 -0.468,4.614 -1.342,6.749c-0.876,2.134 -2.176,4.038 -3.839,5.66c-1.618,1.66 -3.529,2.947 -5.663,3.823c-2.134,0.874 -4.411,1.318 -6.754,1.318" style="fill:#484dbd;fill-rule:nonzero;"/><path d="M170.831,19.551c-0.826,0 -1.525,-0.28 -2.078,-0.834c-0.553,-0.553 -0.834,-1.252 -0.834,-2.078c0,-0.823 0.279,-1.531 0.83,-2.106c0.554,-0.577 1.255,-0.869 2.082,-0.869c0.825,0 1.534,0.291 2.11,0.865c0.574,0.576 0.865,1.286 0.865,2.11c0,0.827 -0.292,1.528 -0.869,2.082c-0.575,0.551 -1.283,0.83 -2.106,0.83m-2.42,39.983l0,-34.325c0,-0.21 0.171,-0.381 0.382,-0.381l4.249,0c0.211,0 0.381,0.171 0.381,0.381l0,34.325c0,0.21 -0.17,0.381 -0.381,0.381l-4.249,0c-0.211,0 -0.382,-0.171 -0.382,-0.381" style="fill:#484dbd;fill-rule:nonzero;"/><path d="M185.452,59.54l0,-45.489c0,-0.207 0.168,-0.374 0.375,-0.374l4.263,0c0.208,0 0.374,0.167 0.374,0.374l0,45.489c0,0.207 -0.166,0.374 -0.374,0.374l-4.263,0c-0.207,0 -0.375,-0.167 -0.375,-0.374" style="fill:#484dbd;fill-rule:nonzero;"/><path d="M227.487,37.735c0.276,0 0.457,-0.286 0.343,-0.537c-0.932,-2.032 -2.345,-3.815 -4.21,-5.192c-2.123,-1.565 -4.578,-2.344 -7.297,-2.344c-1.358,0 -2.675,0.216 -3.913,0.628c-1.239,0.413 -2.389,1.002 -3.417,1.743c-1.031,0.742 -1.951,1.615 -2.735,2.646c-0.588,0.773 -1.087,1.667 -1.491,2.519c-0.119,0.25 0.065,0.537 0.341,0.537l22.379,0Zm-11.164,22.166c-2.346,0 -4.617,-0.454 -6.75,-1.35c-2.134,-0.896 -4.037,-2.172 -5.656,-3.793c-1.665,-1.664 -2.951,-3.578 -3.825,-5.689c-0.874,-2.111 -1.318,-4.371 -1.318,-6.717c0,-2.345 0.444,-4.616 1.318,-6.748c0.874,-2.133 2.161,-4.037 3.827,-5.661c1.617,-1.66 3.521,-2.958 5.654,-3.853c2.133,-0.896 4.404,-1.35 6.75,-1.35c2.346,0 4.607,0.454 6.72,1.35c2.11,0.895 4.024,2.193 5.687,3.855c1.662,1.62 2.922,3.547 3.798,5.724c0.874,2.175 1.29,4.467 1.29,6.809l0,0.269l-29.713,0c-0.218,0 -0.388,0.185 -0.376,0.403c0.079,1.396 0.416,2.906 1.005,4.208c0.681,1.507 1.602,2.831 2.735,3.944c1.136,1.115 2.475,2.013 3.981,2.672c1.502,0.658 3.141,0.991 4.873,0.991c2.35,0 4.523,-0.596 6.46,-1.77c1.938,-1.175 3.464,-2.811 4.536,-4.748l0.072,-0.187l5.459,0l-0.136,0.4c-0.895,2.26 -2.235,4.321 -3.984,6.07c-1.663,1.621 -3.576,2.91 -5.687,3.806c-2.113,0.896 -4.373,1.365 -6.72,1.365" style="fill:#484dbd;fill-rule:nonzero;"/><path d="M255.989,29.676c-1.73,0 -3.381,0.334 -4.907,0.993c-1.527,0.661 -2.876,1.571 -4.009,2.704c-1.134,1.134 -2.044,2.483 -2.703,4.009c-0.659,1.524 -0.993,3.175 -0.993,4.906c0,1.733 0.334,3.395 0.993,4.94c0.66,1.547 1.57,2.906 2.703,4.039c1.134,1.134 2.482,2.044 4.009,2.704c1.523,0.659 3.174,0.993 4.907,0.993c1.732,0 3.382,-0.334 4.906,-0.993c1.526,-0.66 2.875,-1.57 4.009,-2.704c1.133,-1.133 2.043,-2.492 2.703,-4.039c0.66,-1.548 0.994,-3.209 0.994,-4.94c0,-1.729 -0.334,-3.38 -0.993,-4.906c-0.661,-1.526 -1.57,-2.875 -2.704,-4.009c-1.134,-1.133 -2.483,-2.043 -4.009,-2.704c-1.526,-0.659 -3.177,-0.993 -4.906,-0.993m0,30.225c-2.347,0 -4.618,-0.455 -6.751,-1.35c-2.133,-0.896 -4.036,-2.172 -5.656,-3.793c-1.665,-1.665 -2.951,-3.59 -3.824,-5.721c-0.875,-2.132 -1.318,-4.402 -1.318,-6.749c0,-2.303 0.443,-4.552 1.318,-6.685c0.873,-2.132 2.16,-4.057 3.824,-5.721c1.622,-1.621 3.525,-2.897 5.657,-3.792c2.133,-0.896 4.404,-1.351 6.75,-1.351c2.345,0 4.616,0.455 6.75,1.351c1.603,0.673 4.139,2.56 5.298,3.482c0.248,0.198 0.615,0.022 0.615,-0.296l0,-15.223c0,-0.208 0.168,-0.376 0.375,-0.376l4.01,0c0.208,0 0.376,0.168 0.376,0.376l0,28.235c0,2.344 -0.381,4.615 -1.255,6.749c-0.875,2.133 -2.131,4.058 -3.794,5.721c-1.62,1.621 -3.508,2.897 -5.64,3.793c-2.134,0.895 -4.39,1.35 -6.735,1.35" style="fill:#484dbd;fill-rule:nonzero;"/><path d="M280.68,59.536l0,-34.33c0,-0.209 0.169,-0.379 0.378,-0.379l3.414,0c0.164,0 0.309,0.106 0.359,0.262l0.765,2.359c0.08,0.246 0.38,0.343 0.586,0.185c1.143,-0.878 2.398,-1.571 3.743,-2.084c1.628,-0.621 3.364,-0.929 5.158,-0.929c0.598,0 1.173,0.036 1.709,0.1c0.521,0.063 1.115,0.14 1.671,0.225l0.26,0.034l0,5.18l-0.371,-0.1c-1.071,-0.329 -2.179,-0.495 -3.245,-0.495c-1.312,0 -2.57,0.248 -3.715,0.74c-1.148,0.491 -2.172,1.177 -3.032,2.037c-0.86,0.86 -1.49,1.879 -1.983,3.027c-0.491,1.146 -0.685,2.392 -0.685,3.703l0,20.465c0,0.209 -0.169,0.378 -0.378,0.378l-4.256,0c-0.209,0 -0.378,-0.169 -0.378,-0.378" style="fill:#484dbd;fill-rule:nonzero;"/><path d="M319.605,29.676c-1.73,0 -3.381,0.334 -4.907,0.993c-1.527,0.661 -2.876,1.571 -4.009,2.704c-1.134,1.134 -2.044,2.493 -2.703,4.04c-0.659,1.545 -0.993,3.206 -0.993,4.939c0,1.732 0.334,3.383 0.993,4.906c0.659,1.527 1.569,2.876 2.703,4.009c1.134,1.134 2.482,2.044 4.009,2.704c1.523,0.659 3.174,0.993 4.907,0.993c1.732,0 3.382,-0.334 4.906,-0.993c1.527,-0.66 2.888,-1.57 4.043,-2.705c1.154,-1.134 2.073,-2.483 2.733,-4.008c0.659,-1.525 0.994,-3.176 0.994,-4.906c0,-1.73 -0.335,-3.392 -0.994,-4.939c-0.66,-1.545 -1.579,-2.904 -2.733,-4.039c-1.155,-1.134 -2.516,-2.044 -4.043,-2.705c-1.526,-0.659 -3.177,-0.993 -4.906,-0.993m0,30.225c-2.347,0 -4.607,-0.455 -6.719,-1.351c-2.112,-0.895 -4.024,-2.17 -5.685,-3.79c-1.625,-1.666 -2.9,-3.59 -3.795,-5.722c-0.896,-2.132 -1.35,-4.382 -1.35,-6.686c0,-2.346 0.454,-4.617 1.35,-6.75c0.896,-2.133 2.171,-4.057 3.79,-5.718c1.668,-1.624 3.58,-2.899 5.69,-3.794c2.112,-0.896 4.373,-1.351 6.719,-1.351c2.345,0 4.616,0.455 6.75,1.351c2.131,0.895 4.055,2.17 5.718,3.79c1.624,1.666 2.899,3.59 3.794,5.721c0.896,2.134 1.35,4.405 1.35,6.751c0,2.304 -0.454,4.554 -1.35,6.687c-0.894,2.13 -2.17,4.054 -3.79,5.717c-1.665,1.623 -3.589,2.899 -5.722,3.795c-2.133,0.895 -4.405,1.35 -6.75,1.35" style="fill:#484dbd;fill-rule:nonzero;"/><path d="M361.869,29.676c-1.731,0 -3.382,0.334 -4.908,0.993c-1.527,0.661 -2.876,1.571 -4.009,2.704c-1.134,1.134 -2.043,2.493 -2.702,4.04c-0.66,1.545 -0.994,3.206 -0.994,4.939c0,1.732 0.334,3.383 0.994,4.906c0.659,1.527 1.568,2.876 2.702,4.009c1.135,1.134 2.482,2.044 4.01,2.704c1.522,0.659 3.173,0.993 4.906,0.993c1.733,0 3.382,-0.334 4.906,-0.993c1.526,-0.66 2.875,-1.57 4.01,-2.704c1.133,-1.133 2.043,-2.482 2.703,-4.009c0.66,-1.525 0.994,-3.176 0.994,-4.906c0,-1.73 -0.334,-3.392 -0.995,-4.939c-0.659,-1.547 -1.569,-2.906 -2.702,-4.04c-1.135,-1.133 -2.483,-2.043 -4.01,-2.704c-1.526,-0.659 -3.177,-0.993 -4.906,-0.993m-17.165,42.391c-0.204,0 -0.37,-0.166 -0.37,-0.371l0,-29.344c0,-2.345 0.437,-4.616 1.31,-6.749c0.875,-2.132 2.159,-4.057 3.822,-5.721c1.622,-1.621 3.522,-2.897 5.654,-3.792c2.134,-0.896 4.404,-1.351 6.75,-1.351c2.346,0 4.615,0.455 6.75,1.351c2.132,0.895 4.034,2.171 5.656,3.792c1.663,1.662 2.949,3.587 3.825,5.721c0.874,2.136 1.317,4.406 1.317,6.749c0,2.302 -0.443,4.551 -1.317,6.685c-0.875,2.133 -2.162,4.058 -3.825,5.721c-1.62,1.621 -3.524,2.897 -5.656,3.793c-2.133,0.895 -4.405,1.35 -6.75,1.35c-2.347,0 -4.618,-0.455 -6.751,-1.35c-2.459,-1.13 -4.264,-2.565 -5.154,-3.374c-0.238,-0.217 -0.62,-0.048 -0.62,0.275l0,16.244c0,0.205 -0.166,0.371 -0.37,0.371l-4.271,0Z" style="fill:#484dbd;fill-rule:nonzero;"/><path d="M58.515,60.207c-0.153,0 -0.296,0.075 -0.385,0.2c-1.108,1.568 -2.363,3.077 -3.762,4.45c-1.97,1.935 -4.147,3.627 -6.503,5.012c-0.416,0.244 -0.244,0.88 0.239,0.88l16.548,0c0.26,0 0.472,-0.212 0.472,-0.474l0,-9.594c0,-0.262 -0.212,-0.474 -0.472,-0.474l-6.138,0Z" style="fill:#484dbd;fill-rule:nonzero;"/><path d="M60.486,42.14c0,-6.684 -3.765,-15.087 -12.416,-25.691c-5.977,-7.326 -11.875,-12.946 -12.123,-13.182l-3.304,-3.137c-0.182,-0.174 -0.469,-0.174 -0.652,0l-3.303,3.137c-0.248,0.236 -6.146,5.856 -12.124,13.182c-8.65,10.604 -12.816,19.889 -12.816,26.573c0,4.503 1.053,9.461 2.923,13.402c0.078,0.165 0.246,0.269 0.429,0.269l11.432,0c0.406,0 0.623,-0.476 0.357,-0.782c-2.877,-3.311 -4.599,-8.248 -4.599,-12.889c0,-1.851 0.995,-7.843 10.395,-19.386c2.609,-3.203 5.233,-6.292 7.298,-8.485c0.186,-0.198 0.5,-0.2 0.687,-0.003c2.066,2.161 4.695,4.954 7.304,8.158c9.4,11.543 10.418,17.038 10.418,18.889c0,9.913 -9.034,17.972 -18.809,18.04c-0.04,0.001 -31.111,-0.026 -31.111,-0.026c-0.262,0.001 -0.472,0.212 -0.472,0.473l0,9.593c0,0.262 0.21,0.474 0.471,0.474c7.982,-0.001 31.072,-0.001 31.113,-0.001c15.629,-0.079 28.902,-12.882 28.902,-28.608" style="fill:#484dbd;fill-rule:nonzero;"/></svg>