<svg xmlns="http://www.w3.org/2000/svg" width="16" height="16"><path fill="#fff" d="M1 15a.497.497 0 0 1-.496-.5s.007-.746 1.071-1.512c1.138-.818 2.347-.969 3.308-1.498s.954-1.299.925-2.115c-.019-.543-.112-.657-.489-1.392-.556-1.084-.709-2.021-.791-2.823-.127-1.252.011-3.035.86-4.001C6.235.195 7.502.055 7.502.055l.5-.055.498.055s1.266.14 2.113 1.104c.85.966.988 2.75.859 4.001-.08.802-.234 1.739-.791 2.823-.377.734-.476.849-.488 1.392-.029.816-.035 1.586.926 2.115s2.17.68 3.307 1.498c1.064.766 1.072 1.512 1.072 1.512a.497.497 0 0 1-.496.5H1z"/></svg>