<svg version="1" xmlns="http://www.w3.org/2000/svg" width="16" height="16" viewBox="0 0 16 16"><path fill="#FFF" d="M.045 7.997c0-.732.095-1.438.285-2.117a7.98 7.98 0 0 1 2.054-3.522A7.998 7.998 0 0 1 5.898.304 7.826 7.826 0 0 1 8.015.019c.731 0 1.438.095 2.117.285a7.94 7.94 0 0 1 3.514 2.054 8.016 8.016 0 0 1 2.053 3.522c.19.68.285 1.385.285 2.117 0 .731-.095 1.437-.285 2.113a8.009 8.009 0 0 1-3.664 4.765 7.871 7.871 0 0 1-4.02 1.091 7.86 7.86 0 0 1-2.117-.285 7.94 7.94 0 0 1-3.514-2.053A7.985 7.985 0 0 1 .33 10.11a7.776 7.776 0 0 1-.285-2.113zm7.97-6.836c-.627 0-1.232.082-1.814.246A6.855 6.855 0 0 0 2.116 4.55a6.911 6.911 0 0 0-.691 1.632 6.632 6.632 0 0 0-.246 1.815c0 .628.082 1.231.246 1.814a6.895 6.895 0 0 0 1.76 3.012c.416.418.877.774 1.383 1.069.506.294 1.05.523 1.633.688a6.658 6.658 0 0 0 1.814.246c.628 0 1.232-.082 1.814-.246s1.126-.394 1.632-.688a6.693 6.693 0 0 0 1.384-1.069 6.806 6.806 0 0 0 1.757-3.012 6.78 6.78 0 0 0 .242-1.814 6.774 6.774 0 0 0-.93-3.446 6.927 6.927 0 0 0-1.069-1.383 6.833 6.833 0 0 0-3.016-1.76 6.653 6.653 0 0 0-1.814-.247z"/><path fill="#FFF" d="M11.664 7.964l-3.649 3.65-3.65-3.65V5.526l3.65 3.649 3.649-3.649v2.438z"/></svg>