<?xml version="1.0" encoding="UTF-8" standalone="no"?><!DOCTYPE svg PUBLIC "-//W3C//DTD SVG 1.1//EN" "http://www.w3.org/Graphics/SVG/1.1/DTD/svg11.dtd"><svg width="100%" height="100%" viewBox="0 0 192px 37px" version="1.1" xmlns="http://www.w3.org/2000/svg" xmlns:xlink="http://www.w3.org/1999/xlink" xml:space="preserve" style="fill-rule:evenodd;clip-rule:evenodd;stroke-linejoin:round;stroke-miterlimit:1.41421;"><path d="M50.088,14.979c-0.873,0 -1.707,0.169 -2.477,0.502c-0.771,0.333 -1.452,0.793 -2.023,1.364c-0.573,0.573 -1.032,1.259 -1.365,2.04c-0.332,0.779 -0.501,1.618 -0.501,2.493c0,0.874 0.169,1.707 0.501,2.476c0.333,0.771 0.792,1.452 1.365,2.024c0.572,0.572 1.252,1.031 2.023,1.364c0.769,0.333 1.602,0.502 2.477,0.502c0.874,0 1.707,-0.169 2.476,-0.502c0.771,-0.333 1.451,-0.792 2.024,-1.364c0.572,-0.572 1.031,-1.253 1.365,-2.024c0.332,-0.77 0.501,-1.603 0.501,-2.476c0,-0.874 -0.169,-1.713 -0.502,-2.493c-0.333,-0.781 -0.792,-1.467 -1.364,-2.04c-0.573,-0.571 -1.253,-1.031 -2.024,-1.364c-0.77,-0.333 -1.603,-0.502 -2.476,-0.502m0,15.257c-1.185,0 -2.331,-0.23 -3.408,-0.682c-1.076,-0.452 -2.037,-1.096 -2.855,-1.914c-0.84,-0.841 -1.489,-1.812 -1.93,-2.888c-0.441,-1.076 -0.665,-2.211 -0.665,-3.374c0,-1.184 0.224,-2.33 0.665,-3.407c0.441,-1.076 1.091,-2.048 1.93,-2.888c0.819,-0.818 1.78,-1.462 2.856,-1.914c1.076,-0.452 2.223,-0.682 3.407,-0.682c1.184,0 2.33,0.23 3.407,0.682c1.076,0.452 2.036,1.096 2.855,1.914c0.839,0.839 1.491,1.811 1.933,2.888c0.441,1.078 0.667,2.224 0.667,3.407l0,8.675c0,0.105 -0.085,0.189 -0.189,0.189l-2.152,0c-0.105,0 -0.189,-0.084 -0.189,-0.189l0,-2.181c0,-0.174 -0.215,-0.255 -0.33,-0.125c-0.273,0.308 -0.552,0.58 -0.857,0.815c-0.517,0.399 -1.061,0.727 -1.633,0.976c-0.571,0.247 -1.163,0.427 -1.767,0.536c-0.603,0.107 -1.187,0.162 -1.745,0.162" style="fill:#333332;fill-rule:nonzero;"/><path d="M70.685,14.979c-0.873,0 -1.706,0.169 -2.477,0.502c-0.77,0.333 -1.451,0.793 -2.023,1.364c-0.573,0.573 -1.032,1.259 -1.365,2.04c-0.332,0.779 -0.501,1.618 -0.501,2.493c0,0.874 0.169,1.707 0.501,2.476c0.333,0.771 0.792,1.452 1.365,2.024c0.572,0.572 1.253,1.031 2.023,1.364c0.769,0.333 1.602,0.502 2.477,0.502c0.874,0 1.707,-0.169 2.477,-0.502c0.77,-0.333 1.451,-0.792 2.023,-1.364c0.572,-0.572 1.031,-1.253 1.365,-2.024c0.333,-0.77 0.501,-1.603 0.501,-2.476c0,-0.874 -0.168,-1.713 -0.502,-2.493c-0.333,-0.781 -0.792,-1.467 -1.364,-2.04c-0.572,-0.571 -1.253,-1.031 -2.023,-1.364c-0.771,-0.333 -1.604,-0.502 -2.477,-0.502m0,22.005c-1.183,0 -2.324,-0.224 -3.39,-0.666c-2.172,-1.025 -3.54,-2.683 -3.932,-3.2c-0.065,-0.087 -0.045,-0.21 0.044,-0.272l1.717,-1.206c0.086,-0.06 0.203,-0.041 0.265,0.044c0.27,0.369 1.042,1.33 2.223,2.041c0.907,0.523 1.949,0.767 3.073,0.767c0.873,0 1.706,-0.168 2.477,-0.501c0.77,-0.334 1.451,-0.792 2.023,-1.365c0.572,-0.572 1.025,-1.253 1.358,-2.023c0.333,-0.771 0.495,-1.604 0.495,-2.477l0,-0.17c0,-0.168 -0.199,-0.253 -0.322,-0.139c-0.806,0.746 -1.701,1.318 -2.597,1.704c-1.099,0.474 -2.253,0.715 -3.437,0.715c-1.185,0 -2.329,-0.23 -3.406,-0.682c-1.077,-0.452 -2.037,-1.096 -2.854,-1.914c-0.84,-0.841 -1.489,-1.812 -1.93,-2.888c-0.441,-1.076 -0.665,-2.211 -0.665,-3.374c0,-1.184 0.224,-2.33 0.665,-3.407c0.441,-1.076 1.091,-2.048 1.931,-2.888c0.818,-0.818 1.779,-1.462 2.855,-1.914c1.077,-0.452 2.223,-0.682 3.407,-0.682c0.582,0 1.193,0.066 1.817,0.195c0.622,0.129 1.232,0.314 1.813,0.55c0.583,0.238 1.136,0.55 1.643,0.928c0.321,0.239 0.617,0.493 0.885,0.77c0.109,0.113 0.3,0.057 0.327,-0.098l0.258,-2.142c0.016,-0.091 0.096,-0.158 0.189,-0.158l1.759,0c0.106,0 0.192,0.086 0.192,0.192l0,15.402c0,1.182 -0.236,2.329 -0.677,3.406c-0.443,1.078 -1.099,2.039 -1.938,2.857c-0.817,0.838 -1.782,1.488 -2.859,1.93c-1.077,0.441 -2.226,0.665 -3.409,0.665" style="fill:#333332;fill-rule:nonzero;"/><path d="M86.229,9.868c-0.417,0 -0.77,-0.141 -1.049,-0.421c-0.279,-0.279 -0.421,-0.632 -0.421,-1.049c0,-0.415 0.141,-0.772 0.419,-1.063c0.279,-0.291 0.633,-0.438 1.051,-0.438c0.416,0 0.774,0.147 1.065,0.436c0.289,0.291 0.436,0.65 0.436,1.065c0,0.418 -0.147,0.772 -0.438,1.051c-0.291,0.278 -0.648,0.419 -1.063,0.419m-1.222,20.182l0,-17.326c0,-0.106 0.086,-0.192 0.193,-0.192l2.145,0c0.106,0 0.192,0.086 0.192,0.192l0,17.326c0,0.106 -0.086,0.192 -0.192,0.192l-2.145,0c-0.107,0 -0.193,-0.086 -0.193,-0.192" style="fill:#333332;fill-rule:nonzero;"/><path d="M93.609,30.054l0,-22.961c0,-0.105 0.084,-0.189 0.188,-0.189l2.153,0c0.104,0 0.189,0.084 0.189,0.189l0,22.961c0,0.104 -0.085,0.188 -0.189,0.188l-2.153,0c-0.104,0 -0.188,-0.084 -0.188,-0.188" style="fill:#333332;fill-rule:nonzero;"/><path d="M114.826,19.047c0.139,0 0.231,-0.144 0.173,-0.271c-0.47,-1.026 -1.183,-1.926 -2.125,-2.621c-1.071,-0.79 -2.311,-1.183 -3.683,-1.183c-0.685,0 -1.35,0.109 -1.975,0.317c-0.626,0.209 -1.206,0.506 -1.725,0.88c-0.52,0.375 -0.985,0.815 -1.38,1.336c-0.297,0.39 -0.549,0.841 -0.753,1.271c-0.06,0.126 0.033,0.271 0.172,0.271l11.296,0Zm-5.635,11.189c-1.184,0 -2.33,-0.23 -3.407,-0.682c-1.077,-0.452 -2.038,-1.096 -2.855,-1.914c-0.84,-0.84 -1.49,-1.806 -1.931,-2.872c-0.441,-1.066 -0.665,-2.206 -0.665,-3.39c0,-1.184 0.224,-2.33 0.665,-3.407c0.441,-1.076 1.091,-2.037 1.932,-2.857c0.816,-0.838 1.777,-1.493 2.854,-1.945c1.077,-0.452 2.223,-0.681 3.407,-0.681c1.184,0 2.325,0.229 3.392,0.681c1.065,0.452 2.031,1.107 2.871,1.946c0.838,0.818 1.474,1.79 1.917,2.889c0.441,1.098 0.651,2.255 0.651,3.437l0,0.136l-14.998,0c-0.11,0 -0.196,0.093 -0.19,0.203c0.04,0.705 0.21,1.467 0.507,2.124c0.344,0.761 0.809,1.429 1.381,1.991c0.573,0.563 1.249,1.016 2.009,1.349c0.758,0.332 1.586,0.5 2.46,0.5c1.186,0 2.283,-0.301 3.261,-0.893c0.978,-0.593 1.748,-1.419 2.289,-2.397l0.037,-0.094l2.755,0l-0.068,0.202c-0.452,1.14 -1.129,2.181 -2.011,3.063c-0.84,0.819 -1.805,1.469 -2.871,1.922c-1.067,0.452 -2.207,0.689 -3.392,0.689" style="fill:#333332;fill-rule:nonzero;"/><path d="M129.213,14.979c-0.874,0 -1.707,0.169 -2.477,0.502c-0.771,0.333 -1.452,0.793 -2.024,1.364c-0.572,0.573 -1.032,1.254 -1.364,2.024c-0.333,0.769 -0.501,1.603 -0.501,2.476c0,0.875 0.168,1.714 0.501,2.494c0.333,0.781 0.792,1.467 1.364,2.039c0.573,0.572 1.253,1.031 2.024,1.364c0.768,0.333 1.602,0.502 2.477,0.502c0.874,0 1.707,-0.169 2.476,-0.502c0.77,-0.333 1.451,-0.792 2.023,-1.364c0.572,-0.572 1.032,-1.258 1.365,-2.039c0.333,-0.782 0.502,-1.62 0.502,-2.494c0,-0.872 -0.169,-1.706 -0.502,-2.476c-0.333,-0.77 -0.792,-1.451 -1.365,-2.024c-0.572,-0.571 -1.253,-1.031 -2.023,-1.364c-0.77,-0.333 -1.604,-0.502 -2.476,-0.502m0,15.257c-1.185,0 -2.331,-0.23 -3.408,-0.682c-1.077,-0.452 -2.037,-1.096 -2.855,-1.914c-0.84,-0.841 -1.49,-1.812 -1.93,-2.888c-0.442,-1.076 -0.665,-2.222 -0.665,-3.407c0,-1.162 0.223,-2.297 0.665,-3.374c0.44,-1.076 1.09,-2.048 1.93,-2.888c0.819,-0.818 1.779,-1.462 2.855,-1.914c1.077,-0.452 2.223,-0.682 3.408,-0.682c1.183,0 2.33,0.23 3.407,0.682c0.809,0.34 2.089,1.292 2.674,1.758c0.125,0.1 0.31,0.011 0.31,-0.15l0,-7.684c0,-0.105 0.085,-0.189 0.19,-0.189l2.024,0c0.105,0 0.189,0.084 0.189,0.189l0,14.252c0,1.183 -0.192,2.33 -0.633,3.407c-0.442,1.077 -1.076,2.048 -1.915,2.888c-0.818,0.818 -1.771,1.462 -2.847,1.914c-1.077,0.452 -2.216,0.682 -3.399,0.682" style="fill:#333332;fill-rule:nonzero;"/><path d="M141.676,30.051l0,-17.328c0,-0.105 0.085,-0.191 0.191,-0.191l1.723,0c0.083,0 0.156,0.053 0.181,0.132l0.386,1.191c0.041,0.124 0.192,0.173 0.296,0.093c0.577,-0.443 1.21,-0.793 1.889,-1.052c0.822,-0.313 1.698,-0.469 2.604,-0.469c0.302,0 0.592,0.018 0.862,0.051c0.263,0.032 0.563,0.07 0.844,0.113l0.131,0.018l0,2.614l-0.187,-0.05c-0.541,-0.166 -1.1,-0.25 -1.638,-0.25c-0.662,0 -1.297,0.125 -1.875,0.373c-0.58,0.248 -1.097,0.594 -1.531,1.029c-0.434,0.434 -0.752,0.948 -1.001,1.527c-0.247,0.579 -0.345,1.208 -0.345,1.87l0,10.329c0,0.106 -0.086,0.191 -0.191,0.191l-2.148,0c-0.106,0 -0.191,-0.085 -0.191,-0.191" style="fill:#333332;fill-rule:nonzero;"/><path d="M161.323,14.979c-0.873,0 -1.706,0.169 -2.476,0.502c-0.771,0.333 -1.452,0.793 -2.024,1.364c-0.572,0.573 -1.032,1.259 -1.364,2.04c-0.333,0.779 -0.502,1.618 -0.502,2.493c0,0.874 0.169,1.707 0.502,2.476c0.332,0.771 0.792,1.452 1.364,2.024c0.572,0.572 1.253,1.031 2.024,1.364c0.768,0.333 1.602,0.502 2.476,0.502c0.875,0 1.707,-0.169 2.477,-0.502c0.771,-0.333 1.457,-0.792 2.04,-1.365c0.583,-0.572 1.047,-1.253 1.38,-2.023c0.333,-0.77 0.502,-1.603 0.502,-2.476c0,-0.874 -0.169,-1.713 -0.502,-2.493c-0.333,-0.78 -0.797,-1.466 -1.38,-2.039c-0.583,-0.572 -1.269,-1.032 -2.04,-1.365c-0.771,-0.333 -1.604,-0.502 -2.477,-0.502m0,15.257c-1.184,0 -2.325,-0.23 -3.391,-0.682c-1.066,-0.452 -2.031,-1.096 -2.87,-1.913c-0.82,-0.841 -1.463,-1.812 -1.915,-2.889c-0.452,-1.076 -0.682,-2.211 -0.682,-3.374c0,-1.185 0.23,-2.331 0.682,-3.407c0.452,-1.077 1.096,-2.048 1.913,-2.887c0.842,-0.819 1.807,-1.463 2.872,-1.915c1.066,-0.452 2.207,-0.682 3.391,-0.682c1.184,0 2.33,0.23 3.408,0.682c1.075,0.452 2.046,1.096 2.886,1.913c0.819,0.841 1.463,1.812 1.915,2.888c0.452,1.077 0.681,2.223 0.681,3.408c0,1.163 -0.229,2.298 -0.681,3.375c-0.451,1.075 -1.096,2.046 -1.913,2.886c-0.841,0.819 -1.812,1.463 -2.888,1.915c-1.077,0.452 -2.224,0.682 -3.408,0.682" style="fill:#333332;fill-rule:nonzero;"/><path d="M182.656,14.979c-0.873,0 -1.706,0.169 -2.477,0.502c-0.771,0.333 -1.451,0.793 -2.023,1.364c-0.573,0.573 -1.032,1.259 -1.365,2.04c-0.332,0.779 -0.501,1.618 -0.501,2.493c0,0.874 0.169,1.707 0.501,2.476c0.333,0.771 0.792,1.452 1.365,2.024c0.572,0.572 1.252,1.031 2.023,1.364c0.769,0.333 1.602,0.502 2.477,0.502c0.874,0 1.707,-0.169 2.476,-0.502c0.771,-0.333 1.452,-0.792 2.024,-1.364c0.572,-0.572 1.031,-1.253 1.365,-2.024c0.333,-0.77 0.501,-1.603 0.501,-2.476c0,-0.874 -0.168,-1.713 -0.502,-2.493c-0.333,-0.781 -0.792,-1.467 -1.364,-2.04c-0.572,-0.571 -1.253,-1.031 -2.024,-1.364c-0.77,-0.333 -1.603,-0.502 -2.476,-0.502m-8.664,21.398c-0.104,0 -0.187,-0.084 -0.187,-0.188l0,-14.811c0,-1.184 0.22,-2.33 0.661,-3.407c0.442,-1.076 1.09,-2.048 1.93,-2.888c0.818,-0.818 1.777,-1.462 2.853,-1.914c1.077,-0.452 2.223,-0.682 3.408,-0.682c1.183,0 2.329,0.23 3.406,0.682c1.076,0.452 2.036,1.096 2.856,1.914c0.839,0.839 1.488,1.811 1.93,2.888c0.441,1.078 0.665,2.224 0.665,3.407c0,1.162 -0.224,2.297 -0.665,3.374c-0.442,1.077 -1.091,2.048 -1.931,2.888c-0.818,0.818 -1.778,1.462 -2.855,1.914c-1.076,0.452 -2.223,0.682 -3.407,0.682c-1.185,0 -2.331,-0.23 -3.408,-0.682c-1.241,-0.57 -2.152,-1.295 -2.601,-1.703c-0.12,-0.109 -0.312,-0.024 -0.312,0.139l0,8.199c0,0.104 -0.084,0.188 -0.188,0.188l-2.155,0Z" style="fill:#333332;fill-rule:nonzero;"/><path d="M29.536,30.39c-0.078,0 -0.15,0.038 -0.195,0.101c-0.559,0.791 -1.192,1.553 -1.899,2.246c-0.994,0.977 -2.092,1.831 -3.281,2.53c-0.21,0.123 -0.124,0.444 0.12,0.444l8.352,0c0.132,0 0.239,-0.107 0.239,-0.239l0,-4.843c0,-0.132 -0.107,-0.239 -0.239,-0.239l-3.097,0Z" style="fill:#ef4823;fill-rule:nonzero;"/><path d="M30.531,21.271c0,-3.374 -1.901,-7.616 -6.267,-12.968c-3.017,-3.698 -5.994,-6.535 -6.119,-6.654l-1.668,-1.583c-0.092,-0.088 -0.237,-0.088 -0.329,0l-1.667,1.583c-0.126,0.119 -3.103,2.956 -6.12,6.654c-4.366,5.352 -6.469,10.039 -6.469,13.413c0,2.273 0.531,4.775 1.475,6.765c0.04,0.083 0.124,0.136 0.217,0.136l5.77,0c0.205,0 0.315,-0.241 0.18,-0.395c-1.452,-1.671 -2.321,-4.163 -2.321,-6.506c0,-0.934 0.502,-3.959 5.247,-9.785c1.317,-1.617 2.641,-3.176 3.684,-4.283c0.094,-0.1 0.252,-0.101 0.346,-0.002c1.043,1.091 2.37,2.501 3.687,4.118c4.745,5.827 5.259,8.6 5.259,9.535c0,5.003 -4.56,9.071 -9.494,9.105c-0.02,0.001 -15.704,-0.013 -15.704,-0.013c-0.132,0 -0.238,0.107 -0.238,0.239l0,4.842c0,0.132 0.106,0.239 0.238,0.239c4.029,0 15.684,0 15.704,0c7.889,-0.04 14.589,-6.502 14.589,-14.44" style="fill:#ef4823;fill-rule:nonzero;"/></svg>