<svg xmlns="http://www.w3.org/2000/svg" width="29.06" height="25" viewBox="0 0 29.06 25"><defs><style>.cls-1{fill:#fff;fill-rule:evenodd}</style></defs><path class="cls-1" d="M28.32.876A2.758 2.758 0 0 0 26.31 0a2.719 2.719 0 0 0-2.51 3.769L22.45 5a11.608 11.608 0 0 0-15.81.029L5.26 3.768A2.7 2.7 0 0 0 4.6.716 2.733 2.733 0 0 0 .75.877a2.717 2.717 0 0 0 2 4.554 2.755 2.755 0 0 0 1.27-.317l1.39 1.264a11.491 11.491 0 0 0 .05 14.172l-3.39 3.1 1.24 1.34 3.4-3.107a11.616 11.616 0 0 0 15.68.029l3.36 3.08 1.24-1.341-3.36-3.073a11.473 11.473 0 0 0 1.58-2.629l-2.04-1.13a9.216 9.216 0 1 1 .02-6.741l2.04-1.131a11.617 11.617 0 0 0-1.54-2.606l1.35-1.232a2.759 2.759 0 0 0 1.27.318A2.725 2.725 0 0 0 28.32.876zm-6.28 13.771L8.33 17.724a7.6 7.6 0 0 0 12.85-.612l-8.6 1.929-.24-1.08 9.4-2.11a6.935 6.935 0 0 0 .3-1.204zm.1-1.217a7.423 7.423 0 0 0-.07-1.06L7.32 15.679a9.1 9.1 0 0 0 .42 1.043l14.4-3.232v-.06zm-15.08-1.1l13.8-3.1a7.67 7.67 0 0 0-.77-.963L7.34 11.128a7.9 7.9 0 0 0-.28 1.202zm.01 2.269l14.76-3.312a7.5 7.5 0 0 0-.4-1.046L6.98 13.483a10.164 10.164 0 0 0 .09 1.117zm.8-4.722l11.2-2.512a7.608 7.608 0 0 0-11.2 2.512z"/></svg>